<?xml version="1.0" encoding="UTF-8"?>
<svg xmlns="http://www.w3.org/2000/svg" viewBox="0 0 1100 1100" style="background:white;">
  <defs>
    <filter id="shadow">
      <feDropShadow dx="2" dy="2" stdDeviation="3" flood-opacity="0.3"/>
    </filter>
  </defs>
  
  <style>
    .title { font-family: Arial, sans-serif; font-size: 32px; font-weight: bold; }
    .legend-title { font-family: Arial, sans-serif; font-size: 18px; font-weight: bold; }
    .legend-text { font-family: Arial, sans-serif; font-size: 14px; }
    .device { font-family: Arial, sans-serif; font-size: 14px; font-weight: bold; }
    .port { font-family: Arial, sans-serif; font-size: 15px; font-weight: bold; }
    .side-label { font-family: Arial, sans-serif; font-size: 16px; font-weight: bold; fill: #666; }
  </style>

  <text x="40" y="35" class="title">PCDSN Network Topology</text>

  <rect x="50" y="65" width="320" height="75" fill="white" stroke="#ccc" stroke-width="1" rx="8"/>
  <text x="65" y="88" class="legend-title">Legend</text>
  <line x1="65" y1="103" x2="120" y2="103" stroke="#3B82F6" stroke-width="2"/>
  <text x="128" y="108" class="legend-text">Data Connection</text>
  <line x1="65" y1="120" x2="120" y2="120" stroke="#A855F7" stroke-width="2" stroke-dasharray="5,3"/>
  <text x="128" y="125" class="legend-text">VPC</text>
  <line x1="235" y1="103" x2="290" y2="103" stroke="#3B82F6" stroke-width="2" stroke-dasharray="5,5"/>
  <text x="298" y="108" class="legend-text">LAG</text>
  <rect x="235" y="113" width="60" height="18" fill="#1E40AF" stroke="#1E3A8A" stroke-width="1" rx="3"/>
  <text x="265" y="126" style="font-size:10px; fill:white; font-weight:bold;">Stack</text>

  <ellipse cx="340" cy="185" rx="85" ry="38" fill="#93C5FD" stroke="#2563EB" stroke-width="2" filter="url(#shadow)"/>
  <text x="340" y="190" text-anchor="middle" class="device">rtr-pcdsn-neh01</text>

  <ellipse cx="520" cy="185" rx="85" ry="38" fill="#93C5FD" stroke="#2563EB" stroke-width="2" filter="url(#shadow)"/>
  <text x="520" y="190" text-anchor="middle" class="device">rtr-pcdsn-neh02</text>

  <line x1="425" y1="185" x2="435" y2="185" stroke="#A855F7" stroke-width="2" stroke-dasharray="5,3"/>
  <text x="430" y="170" text-anchor="middle" style="font-size:18px; font-weight:bold; fill:#7C3AED;">VPC</text>

  <rect x="240" y="283" width="125" height="62" fill="#60A5FA" stroke="#2563EB" stroke-width="2" rx="8" filter="url(#shadow)"/>
  <text x="302" y="318" text-anchor="middle" class="device">swh-pcdsn-neh#1</text>

  <rect x="505" y="283" width="125" height="62" fill="#60A5FA" stroke="#2563EB" stroke-width="2" rx="8" filter="url(#shadow)"/>
  <text x="567" y="318" text-anchor="middle" class="device">swh-pcdsn-neh#2</text>

  <rect x="405" y="307" width="85" height="18" fill="#1E40AF" stroke="#1E3A8A" stroke-width="2" rx="4"/>
  <text x="447" y="319" text-anchor="middle" style="font-size:11px; font-weight:bold; fill:white;">400G Stack</text>
  <line x1="365" y1="314" x2="405" y2="314" stroke="#1E40AF" stroke-width="3"/>
  <line x1="490" y1="314" x2="505" y2="314" stroke="#1E40AF" stroke-width="3"/>

  <line x1="340" y1="224" x2="340" y2="283" stroke="#3B82F6" stroke-width="2"/>
  <text x="320" y="240" class="port" fill="#1D4ED8">1/2/9</text>
  <text x="320" y="268" class="port" fill="#1D4ED8">1/3/3</text>

  <line x1="520" y1="224" x2="520" y2="283" stroke="#3B82F6" stroke-width="2"/>
  <text x="535" y="240" class="port" fill="#1D4ED8">1/2/9</text>
  <text x="535" y="268" class="port" fill="#1D4ED8">2/3/3</text>

  <ellipse cx="430" cy="253" rx="145" ry="35" fill="none" stroke="#3B82F6" stroke-width="2"/>
  <rect x="400" y="237" width="60" height="24" fill="white" stroke="#3B82F6" stroke-width="2" rx="5"/>
  <text x="430" y="253" text-anchor="middle" style="font-size:14px; font-weight:bold; fill:#2563EB;">LAG3</text>

  <text x="75" y="378" class="side-label">NEH Side</text>
  <text x="710" y="378" class="side-label">FEH Side</text>

  <!-- XPP - 端口X=10在方框外 -->
  <rect x="65" y="400" width="95" height="38" fill="#34D399" stroke="#059669" stroke-width="2" rx="6" filter="url(#shadow)"/>
  <text x="112" y="423" text-anchor="middle" class="device">swh-xpp-h3</text>
  
  <line x1="160" y1="410" x2="240" y2="318" stroke="#10B981" stroke-width="2"/>
  <text x="10" y="410" class="port" fill="#047857">1/2/1</text>
  <text x="190" y="355" class="port" fill="#047857">1/1/6</text>
  
  <line x1="160" y1="428" x2="505" y2="323" stroke="#10B981" stroke-width="2"/>
  <text x="10" y="436" class="port" fill="#047857">2/2/1</text>
  <text x="465" y="343" class="port" fill="#047857">2/1/6</text>

  <!-- TMO - 端口X=10在方框外 -->
  <rect x="65" y="465" width="95" height="38" fill="#22D3EE" stroke="#0891B2" stroke-width="2" rx="6" filter="url(#shadow)"/>
  <text x="112" y="488" text-anchor="middle" class="device">swh-tmo-h11</text>
  
  <line x1="160" y1="484" x2="240" y2="325" stroke="#06B6D4" stroke-width="2"/>
  <text x="10" y="484" class="port" fill="#0E7490">1/2/1</text>
  <text x="195" y="400" class="port" fill="#0E7490">1/1/10</text>

  <!-- TMO-LAMP -->
  <rect x="8" y="518" width="115" height="38" fill="#22D3EE" stroke="#0891B2" stroke-width="2" rx="6" filter="url(#shadow)"/>
  <text x="65" y="537" text-anchor="middle" style="font-family: Arial, sans-serif; font-size: 12px; font-weight: bold;">swh-tmo-h11-lamp</text>
  
  <line x1="65" y1="518" x2="93" y2="503" stroke="#06B6D4" stroke-width="2"/>
  <text x="112" y="515" class="port" fill="#0E7490">1/1/48</text>
  <text x="3" y="570" class="port" fill="#0E7490">1/2/1</text>

  <!-- TXI - 端口X=10在方框外 -->
  <rect x="65" y="595" width="95" height="38" fill="#C084FC" stroke="#9333EA" stroke-width="2" rx="6" filter="url(#shadow)"/>
  <text x="112" y="618" text-anchor="middle" class="device">swh-txi-h12</text>
  
  <line x1="160" y1="614" x2="240" y2="330" stroke="#A855F7" stroke-width="2"/>
  <text x="10" y="614" class="port" fill="#7C3AED">1/2/1</text>
  <text x="200" y="465" class="port" fill="#7C3AED">1/1/8</text>

  <!-- RIX - 端口X=10在方框外 -->
  <rect x="65" y="665" width="95" height="38" fill="#60A5FA" stroke="#2563EB" stroke-width="2" rx="6" filter="url(#shadow)"/>
  <text x="112" y="688" text-anchor="middle" class="device">swh-rix-h22</text>
  
  <line x1="160" y1="675" x2="240" y2="335" stroke="#3B82F6" stroke-width="2"/>
  <text x="10" y="675" class="port" fill="#1D4ED8">1/2/1</text>
  <text x="205" y="500" class="port" fill="#1D4ED8">1/1/9</text>
  
  <line x1="160" y1="693" x2="505" y2="343" stroke="#3B82F6" stroke-width="2"/>
  <text x="10" y="701" class="port" fill="#1D4ED8">2/2/1</text>
  <text x="455" y="378" class="port" fill="#1D4ED8">2/1/9</text>

  <rect x="500" y="395" width="95" height="38" fill="#A78BFA" stroke="#7C3AED" stroke-width="2" rx="6" filter="url(#shadow)"/>
  <text x="547" y="418" text-anchor="middle" class="device">swh-xcs-h4</text>
  
  <line x1="500" y1="408" x2="365" y2="330" stroke="#8B5CF6" stroke-width="2"/>
  <text x="575" y="380" class="port" fill="#6D28D9">2/2/1</text>
  <text x="370" y="360" class="port" fill="#6D28D9">1/1/4</text>
  
  <line x1="547" y1="395" x2="558" y2="345" stroke="#8B5CF6" stroke-width="2"/>
  <text x="465" y="424" class="port" fill="#6D28D9">1/2/1</text>
  <text x="640" y="358" class="port" fill="#6D28D9">2/1/4</text>

  <rect x="500" y="472" width="95" height="38" fill="#FCD34D" stroke="#D97706" stroke-width="2" rx="6" filter="url(#shadow)"/>
  <text x="547" y="495" text-anchor="middle" class="device">swh-mfx-h45</text>
  
  <line x1="500" y1="491" x2="365" y2="333" stroke="#EAB308" stroke-width="2"/>
  <text x="465" y="491" class="port" fill="#A16207">1/2/1</text>
  <text x="370" y="398" class="port" fill="#A16207">1/1/3</text>

  <rect x="738" y="463" width="105" height="38" fill="#FCD34D" stroke="#D97706" stroke-width="2" rx="6" filter="url(#shadow)"/>
  <text x="790" y="486" text-anchor="middle" class="device">swh-mfx-mezz</text>
  
  <line x1="595" y1="479" x2="738" y2="476" stroke="#EAB308" stroke-width="2"/>
  <text x="600" y="460" class="port" fill="#A16207">3/2/1</text>
  <text x="710" y="467" class="port" fill="#A16207">1/1/1</text>

  <rect x="738" y="516" width="125" height="38" fill="#FCD34D" stroke="#D97706" stroke-width="2" rx="6" filter="url(#shadow)"/>
  <text x="800" y="539" text-anchor="middle" class="device">swh-mfx-mezz-daq</text>
  
  <line x1="595" y1="501" x2="738" y2="532" stroke="#EAB308" stroke-width="2"/>
  <text x="600" y="515" class="port" fill="#A16207">3/2/3</text>
  <text x="700" y="525" class="port" fill="#A16207">1/1/47</text>

  <rect x="500" y="578" width="95" height="38" fill="#F87171" stroke="#DC2626" stroke-width="2" rx="6" filter="url(#shadow)"/>
  <text x="547" y="601" text-anchor="middle" class="device">swh-cxi-h5</text>
  
  <line x1="500" y1="597" x2="365" y2="337" stroke="#EF4444" stroke-width="2"/>
  <text x="465" y="597" class="port" fill="#B91C1C">1/2/1</text>
  <text x="370" y="455" class="port" fill="#B91C1C">1/1/2</text>

  <rect x="738" y="578" width="125" height="52" fill="#F87171" stroke="#DC2626" stroke-width="2" rx="6" filter="url(#shadow)"/>
  <text x="800" y="608" text-anchor="middle" class="device">swh-cxi-mezz-daq</text>
  
  <line x1="595" y1="590" x2="738" y2="590" stroke="#EF4444" stroke-width="2"/>
  <text x="600" y="570" class="port" fill="#B91C1C">3/2/3</text>
  <text x="700" y="580" class="port" fill="#B91C1C">1/1/47</text>
  
  <line x1="595" y1="608" x2="738" y2="620" stroke="#EF4444" stroke-width="2"/>
  <text x="600" y="630" class="port" fill="#B91C1C">3/2/4</text>
  <text x="700" y="630" class="port" fill="#B91C1C">1/1/48</text>

  <rect x="500" y="713" width="95" height="75" fill="#FBBF24" stroke="#F59E0B" stroke-width="2" rx="6" filter="url(#shadow)"/>
  <text x="547" y="755" text-anchor="middle" class="device">swh-mec-h6</text>
  
  <line x1="500" y1="750" x2="365" y2="342" stroke="#F59E0B" stroke-width="2"/>
  <text x="465" y="750" class="port" fill="#D97706">1/2/1</text>
  <text x="370" y="533" class="port" fill="#D97706">1/1/1</text>

  <rect x="738" y="688" width="105" height="62" fill="#FBBF24" stroke="#F59E0B" stroke-width="2" rx="6" filter="url(#shadow)"/>
  <text x="790" y="723" text-anchor="middle" class="device">swh-mec-mezz</text>
  
  <line x1="595" y1="715" x2="738" y2="692" stroke="#F59E0B" stroke-width="2"/>
  <text x="598" y="705" class="port" fill="#D97706">3/2/1</text>
  <text x="700" y="685" class="port" fill="#D97706">1/3/1</text>
  
  <line x1="595" y1="778" x2="738" y2="747" stroke="#F59E0B" stroke-width="2"/>
  <text x="598" y="785" class="port" fill="#D97706">3/2/2</text>
  <text x="700" y="750" class="port" fill="#D97706">1/3/2</text>

  <rect x="738" y="798" width="125" height="62" fill="#FBBF24" stroke="#F59E0B" stroke-width="2" rx="6" filter="url(#shadow)"/>
  <text x="800" y="833" text-anchor="middle" class="device">swh-mec-mezz-daq</text>
  
  <line x1="595" y1="753" x2="738" y2="803" stroke="#F59E0B" stroke-width="2"/>
  <text x="598" y="755" class="port" fill="#D97706">3/2/3</text>
  <text x="700" y="800" class="port" fill="#D97706">1/1/4</text>
  
  <line x1="595" y1="785" x2="738" y2="853" stroke="#F59E0B" stroke-width="2"/>
  <text x="598" y="820" class="port" fill="#D97706">3/2/4</text>
  <text x="700" y="860" class="port" fill="#D97706">1/1/3</text>

</svg>
